<svg id="visual" viewBox="0 0 960 540" width="960" height="540" xmlns="http://www.w3.org/2000/svg" xmlns:xlink="http://www.w3.org/1999/xlink" version="1.1"><rect x="0" y="0" width="960" height="540" fill="#0c357e"></rect><path d="M0 372L137 339L274 315L411 348L549 387L686 402L823 347L960 351L960 541L823 541L686 541L549 541L411 541L274 541L137 541L0 541Z" fill="#4facf7"></path><path d="M0 390L137 360L274 362L411 362L549 384L686 423L823 404L960 409L960 541L823 541L686 541L549 541L411 541L274 541L137 541L0 541Z" fill="#3b81bc"></path><path d="M0 449L137 456L274 398L411 415L549 405L686 406L823 458L960 439L960 541L823 541L686 541L549 541L411 541L274 541L137 541L0 541Z" fill="#275984"></path><path d="M0 451L137 454L274 478L411 444L549 445L686 469L823 443L960 480L960 541L823 541L686 541L549 541L411 541L274 541L137 541L0 541Z" fill="#133350"></path><path d="M0 475L137 484L274 489L411 497L549 473L686 502L823 474L960 474L960 541L823 541L686 541L549 541L411 541L274 541L137 541L0 541Z" fill="#001122"></path></svg>